<svg xmlns="http://www.w3.org/2000/svg" xmlns:xlink="http://www.w3.org/1999/xlink" width="1080" zoomAndPan="magnify" viewBox="0 0 810 809.999993" height="1080" preserveAspectRatio="xMidYMid meet" version="1.0"><defs><g/></defs><g fill="#000000" fill-opacity="1"><g transform="translate(172.189449, 457.400037)"><g><path d="M 16.40625 -31.46875 L 47.125 -31.46875 L 47.125 -46.234375 C 47.125 -47.671875 47.0625 -48.796875 46.9375 -49.609375 C 46.820312 -50.429688 46.523438 -51.050781 46.046875 -51.46875 C 45.578125 -51.894531 44.875 -52.15625 43.9375 -52.25 C 43 -52.351562 41.710938 -52.40625 40.078125 -52.40625 L 40.078125 -55.96875 C 41.265625 -55.914062 42.894531 -55.875 44.96875 -55.84375 C 47.050781 -55.820312 49.191406 -55.8125 51.390625 -55.8125 C 53.597656 -55.8125 55.703125 -55.820312 57.703125 -55.84375 C 59.710938 -55.875 61.257812 -55.914062 62.34375 -55.96875 L 62.34375 -52.40625 C 60.707031 -52.40625 59.429688 -52.34375 58.515625 -52.21875 C 57.609375 -52.09375 56.90625 -51.816406 56.40625 -51.390625 C 55.914062 -50.972656 55.609375 -50.351562 55.484375 -49.53125 C 55.359375 -48.71875 55.296875 -47.570312 55.296875 -46.09375 L 55.296875 -10.390625 C 55.296875 -8.804688 55.367188 -7.546875 55.515625 -6.609375 C 55.660156 -5.671875 55.976562 -4.960938 56.46875 -4.484375 C 56.96875 -4.015625 57.675781 -3.707031 58.59375 -3.5625 C 59.507812 -3.414062 60.757812 -3.34375 62.34375 -3.34375 L 62.34375 0.296875 C 61.257812 0.242188 59.710938 0.191406 57.703125 0.140625 C 55.703125 0.0976562 53.585938 0.078125 51.359375 0.078125 C 49.128906 0.078125 46.988281 0.0976562 44.9375 0.140625 C 42.882812 0.191406 41.265625 0.242188 40.078125 0.296875 L 40.078125 -3.34375 C 41.660156 -3.34375 42.921875 -3.425781 43.859375 -3.59375 C 44.804688 -3.769531 45.515625 -4.101562 45.984375 -4.59375 C 46.453125 -5.09375 46.757812 -5.785156 46.90625 -6.671875 C 47.050781 -7.566406 47.125 -8.757812 47.125 -10.25 L 47.125 -26.796875 L 16.40625 -26.796875 L 16.40625 -10.25 C 16.40625 -8.707031 16.46875 -7.488281 16.59375 -6.59375 C 16.71875 -5.707031 17.015625 -5.015625 17.484375 -4.515625 C 17.953125 -4.023438 18.65625 -3.707031 19.59375 -3.5625 C 20.53125 -3.414062 21.789062 -3.34375 23.375 -3.34375 L 23.375 0.21875 C 22.238281 0.175781 20.65625 0.140625 18.625 0.109375 C 16.601562 0.0859375 14.488281 0.078125 12.28125 0.078125 C 10.082031 0.078125 7.96875 0.0976562 5.9375 0.140625 C 3.90625 0.191406 2.296875 0.242188 1.109375 0.296875 L 1.109375 -3.34375 C 2.691406 -3.34375 3.953125 -3.425781 4.890625 -3.59375 C 5.835938 -3.769531 6.554688 -4.101562 7.046875 -4.59375 C 7.546875 -5.09375 7.867188 -5.800781 8.015625 -6.71875 C 8.160156 -7.632812 8.234375 -8.859375 8.234375 -10.390625 L 8.234375 -45.796875 C 8.234375 -47.328125 8.160156 -48.523438 8.015625 -49.390625 C 7.867188 -50.253906 7.546875 -50.910156 7.046875 -51.359375 C 6.554688 -51.804688 5.835938 -52.09375 4.890625 -52.21875 C 3.953125 -52.34375 2.691406 -52.40625 1.109375 -52.40625 L 1.109375 -56.03125 C 2.253906 -55.9375 3.835938 -55.875 5.859375 -55.84375 C 7.890625 -55.820312 10.003906 -55.8125 12.203125 -55.8125 C 14.410156 -55.8125 16.539062 -55.820312 18.59375 -55.84375 C 20.644531 -55.875 22.238281 -55.9375 23.375 -56.03125 L 23.375 -52.40625 C 21.789062 -52.40625 20.539062 -52.328125 19.625 -52.171875 C 18.71875 -52.023438 18.023438 -51.738281 17.546875 -51.3125 C 17.078125 -50.894531 16.769531 -50.265625 16.625 -49.421875 C 16.476562 -48.585938 16.40625 -47.453125 16.40625 -46.015625 Z M 16.40625 -31.46875 "/></g></g></g><g fill="#000000" fill-opacity="1"><g transform="translate(236.45958, 457.400037)"><g><path d="M 14.109375 -27.984375 L 14.109375 -7.421875 C 14.109375 -6.429688 14.144531 -5.664062 14.21875 -5.125 C 14.289062 -4.582031 14.5 -4.1875 14.84375 -3.9375 C 15.1875 -3.6875 15.703125 -3.523438 16.390625 -3.453125 C 17.085938 -3.378906 18.054688 -3.34375 19.296875 -3.34375 L 19.296875 0.15625 C 17.566406 0.15625 15.984375 0.128906 14.546875 0.078125 C 13.109375 0.0234375 11.722656 0 10.390625 0 C 8.953125 0 7.476562 0.0078125 5.96875 0.03125 C 4.46875 0.0625 2.847656 0.101562 1.109375 0.15625 L 1.109375 -3.34375 C 2.347656 -3.34375 3.3125 -3.363281 4 -3.40625 C 4.695312 -3.457031 5.21875 -3.617188 5.5625 -3.890625 C 5.914062 -4.171875 6.128906 -4.582031 6.203125 -5.125 C 6.273438 -5.664062 6.3125 -6.429688 6.3125 -7.421875 L 6.3125 -25.234375 C 6.3125 -26.421875 6.285156 -27.359375 6.234375 -28.046875 C 6.179688 -28.742188 6.003906 -29.273438 5.703125 -29.640625 C 5.410156 -30.015625 4.976562 -30.238281 4.40625 -30.3125 C 3.84375 -30.394531 3.039062 -30.4375 2 -30.4375 L 2 -33.40625 C 3.78125 -33.644531 5.335938 -34.023438 6.671875 -34.546875 C 8.015625 -35.066406 9.28125 -35.875 10.46875 -36.96875 L 14.546875 -36.96875 C 14.347656 -35.476562 14.222656 -33.90625 14.171875 -32.25 C 14.128906 -30.59375 14.109375 -29.171875 14.109375 -27.984375 Z M 9.953125 -56.625 C 11.429688 -56.625 12.675781 -56.117188 13.6875 -55.109375 C 14.707031 -54.097656 15.21875 -52.945312 15.21875 -51.65625 C 15.21875 -50.414062 14.707031 -49.300781 13.6875 -48.3125 C 12.675781 -47.320312 11.429688 -46.828125 9.953125 -46.828125 C 9.203125 -46.828125 8.519531 -46.960938 7.90625 -47.234375 C 7.289062 -47.515625 6.734375 -47.875 6.234375 -48.3125 C 5.742188 -48.757812 5.359375 -49.28125 5.078125 -49.875 C 4.804688 -50.46875 4.671875 -51.0625 4.671875 -51.65625 C 4.671875 -52.945312 5.191406 -54.097656 6.234375 -55.109375 C 7.273438 -56.117188 8.515625 -56.625 9.953125 -56.625 Z M 9.953125 -56.625 "/></g></g></g><g fill="#000000" fill-opacity="1"><g transform="translate(256.942901, 457.400037)"><g><path d="M 7.34375 2.671875 C 6.550781 2.421875 5.847656 2.035156 5.234375 1.515625 C 4.617188 1.003906 4.132812 0.414062 3.78125 -0.25 C 3.4375 -0.925781 3.265625 -1.609375 3.265625 -2.296875 C 3.265625 -2.941406 3.398438 -3.585938 3.671875 -4.234375 C 3.941406 -4.878906 4.335938 -5.445312 4.859375 -5.9375 C 5.378906 -6.4375 6 -6.84375 6.71875 -7.15625 C 7.4375 -7.476562 8.21875 -7.640625 9.0625 -7.640625 C 11.238281 -7.640625 12.878906 -6.910156 13.984375 -5.453125 C 15.097656 -3.992188 15.65625 -2.25 15.65625 -0.21875 C 15.65625 2.550781 14.863281 5.046875 13.28125 7.265625 C 11.695312 9.492188 9.222656 11.15625 5.859375 12.25 L 3.859375 9.65625 C 5.742188 8.957031 7.179688 8.039062 8.171875 6.90625 C 9.160156 5.769531 9.65625 4.484375 9.65625 3.046875 C 9.65625 2.898438 9.65625 2.800781 9.65625 2.75 C 8.863281 2.894531 8.09375 2.867188 7.34375 2.671875 Z M 7.34375 2.671875 "/></g></g></g><g fill="#000000" fill-opacity="1"><g transform="translate(277.723081, 457.400037)"><g/></g></g><g fill="#000000" fill-opacity="1"><g transform="translate(300.507065, 457.400037)"><g><path d="M 8.015625 -10.390625 L 8.015625 -45.875 C 8.015625 -47.40625 7.953125 -48.601562 7.828125 -49.46875 C 7.703125 -50.332031 7.390625 -50.972656 6.890625 -51.390625 C 6.398438 -51.816406 5.6875 -52.09375 4.75 -52.21875 C 3.8125 -52.34375 2.523438 -52.40625 0.890625 -52.40625 L 0.890625 -56.03125 C 1.628906 -55.988281 2.582031 -55.953125 3.75 -55.921875 C 4.914062 -55.898438 6.203125 -55.875 7.609375 -55.84375 C 9.015625 -55.820312 10.472656 -55.8125 11.984375 -55.8125 C 13.492188 -55.8125 14.941406 -55.820312 16.328125 -55.84375 C 17.710938 -55.875 19.007812 -55.890625 20.21875 -55.890625 C 21.4375 -55.890625 22.414062 -55.914062 23.15625 -55.96875 L 23.15625 -52.40625 C 21.519531 -52.40625 20.242188 -52.34375 19.328125 -52.21875 C 18.421875 -52.09375 17.726562 -51.816406 17.25 -51.390625 C 16.78125 -50.972656 16.484375 -50.332031 16.359375 -49.46875 C 16.242188 -48.601562 16.1875 -47.40625 16.1875 -45.875 L 16.1875 -10.390625 C 16.1875 -8.859375 16.257812 -7.632812 16.40625 -6.71875 C 16.550781 -5.800781 16.867188 -5.09375 17.359375 -4.59375 C 17.859375 -4.101562 18.566406 -3.769531 19.484375 -3.59375 C 20.398438 -3.425781 21.625 -3.34375 23.15625 -3.34375 L 23.15625 0.21875 C 22.019531 0.175781 20.4375 0.140625 18.40625 0.109375 C 16.375 0.0859375 14.257812 0.078125 12.0625 0.078125 C 9.863281 0.078125 7.75 0.0976562 5.71875 0.140625 C 3.6875 0.191406 2.078125 0.242188 0.890625 0.296875 L 0.890625 -3.34375 C 2.421875 -3.34375 3.65625 -3.425781 4.59375 -3.59375 C 5.539062 -3.769531 6.273438 -4.101562 6.796875 -4.59375 C 7.316406 -5.09375 7.648438 -5.800781 7.796875 -6.71875 C 7.941406 -7.632812 8.015625 -8.859375 8.015625 -10.390625 Z M 8.015625 -10.390625 "/></g></g></g><g fill="#000000" fill-opacity="1"><g transform="translate(324.775348, 457.400037)"><g><path d="M 10.90625 -59.296875 L 8.765625 -43.796875 L 4.015625 -43.796875 L 2.234375 -59.296875 C 2.128906 -60.085938 2.4375 -60.914062 3.15625 -61.78125 C 3.875 -62.65625 4.953125 -63.09375 6.390625 -63.09375 C 7.921875 -63.09375 9.09375 -62.65625 9.90625 -61.78125 C 10.726562 -60.914062 11.0625 -60.085938 10.90625 -59.296875 Z M 10.90625 -59.296875 "/></g></g></g><g fill="#000000" fill-opacity="1"><g transform="translate(338.134035, 457.400037)"><g><path d="M 14.46875 -36.96875 C 14.375 -36.21875 14.289062 -35.582031 14.21875 -35.0625 C 14.144531 -34.550781 14.082031 -33.972656 14.03125 -33.328125 C 14.03125 -32.285156 14.03125 -31.566406 14.03125 -31.171875 C 14.820312 -32.015625 15.695312 -32.816406 16.65625 -33.578125 C 17.625 -34.347656 18.53125 -34.957031 19.375 -35.40625 C 20.21875 -35.851562 21.207031 -36.234375 22.34375 -36.546875 C 23.476562 -36.867188 24.789062 -37.03125 26.28125 -37.03125 C 27.363281 -37.03125 28.382812 -36.894531 29.34375 -36.625 C 30.3125 -36.351562 31.179688 -35.984375 31.953125 -35.515625 C 32.722656 -35.046875 33.378906 -34.414062 33.921875 -33.625 C 34.460938 -32.832031 34.859375 -31.988281 35.109375 -31.09375 C 36.390625 -32.382812 38.046875 -33.695312 40.078125 -35.03125 C 42.109375 -36.363281 44.632812 -37.03125 47.65625 -37.03125 C 49.4375 -37.03125 50.957031 -36.695312 52.21875 -36.03125 C 53.476562 -35.363281 54.503906 -34.484375 55.296875 -33.390625 C 56.085938 -32.304688 56.65625 -31.054688 57 -29.640625 C 57.34375 -28.234375 57.515625 -26.789062 57.515625 -25.3125 L 57.515625 -8.015625 C 57.515625 -7.023438 57.5625 -6.21875 57.65625 -5.59375 C 57.757812 -4.976562 57.984375 -4.5 58.328125 -4.15625 C 58.679688 -3.8125 59.191406 -3.585938 59.859375 -3.484375 C 60.523438 -3.390625 61.425781 -3.34375 62.5625 -3.34375 L 62.5625 0.21875 C 61.375 0.175781 60.015625 0.140625 58.484375 0.109375 C 56.953125 0.0859375 55.367188 0.078125 53.734375 0.078125 C 52.097656 0.078125 50.5 0.0976562 48.9375 0.140625 C 47.382812 0.191406 45.988281 0.242188 44.75 0.296875 L 44.75 -3.34375 C 45.894531 -3.34375 46.800781 -3.390625 47.46875 -3.484375 C 48.132812 -3.585938 48.628906 -3.8125 48.953125 -4.15625 C 49.273438 -4.5 49.484375 -4.976562 49.578125 -5.59375 C 49.679688 -6.21875 49.734375 -7.023438 49.734375 -8.015625 L 49.734375 -22.484375 C 49.734375 -23.628906 49.671875 -24.742188 49.546875 -25.828125 C 49.421875 -26.921875 49.171875 -27.882812 48.796875 -28.71875 C 48.429688 -29.5625 47.890625 -30.226562 47.171875 -30.71875 C 46.453125 -31.21875 45.5 -31.46875 44.3125 -31.46875 C 43.664062 -31.46875 42.945312 -31.316406 42.15625 -31.015625 C 41.363281 -30.722656 40.570312 -30.363281 39.78125 -29.9375 C 38.988281 -29.519531 38.234375 -29.0625 37.515625 -28.5625 C 36.796875 -28.070312 36.21875 -27.628906 35.78125 -27.234375 L 35.78125 -8.015625 C 35.78125 -7.023438 35.828125 -6.21875 35.921875 -5.59375 C 36.023438 -4.976562 36.257812 -4.5 36.625 -4.15625 C 37 -3.8125 37.546875 -3.585938 38.265625 -3.484375 C 38.984375 -3.390625 39.9375 -3.34375 41.125 -3.34375 L 41.125 0.21875 C 39.882812 0.175781 38.472656 0.140625 36.890625 0.109375 C 35.304688 0.0859375 33.6875 0.078125 32.03125 0.078125 C 30.375 0.078125 28.753906 0.0976562 27.171875 0.140625 C 25.585938 0.191406 24.175781 0.242188 22.9375 0.296875 L 22.9375 -3.34375 C 24.070312 -3.34375 24.972656 -3.40625 25.640625 -3.53125 C 26.304688 -3.65625 26.8125 -3.875 27.15625 -4.1875 C 27.507812 -4.507812 27.734375 -4.976562 27.828125 -5.59375 C 27.929688 -6.21875 27.984375 -7.023438 27.984375 -8.015625 L 27.984375 -22.484375 C 27.984375 -23.671875 27.921875 -24.796875 27.796875 -25.859375 C 27.671875 -26.929688 27.421875 -27.882812 27.046875 -28.71875 C 26.679688 -29.5625 26.140625 -30.226562 25.421875 -30.71875 C 24.703125 -31.21875 23.75 -31.46875 22.5625 -31.46875 C 22.070312 -31.46875 21.453125 -31.316406 20.703125 -31.015625 C 19.960938 -30.722656 19.179688 -30.351562 18.359375 -29.90625 C 17.546875 -29.46875 16.742188 -28.972656 15.953125 -28.421875 C 15.160156 -27.878906 14.519531 -27.363281 14.03125 -26.875 L 14.03125 -8.015625 C 14.03125 -7.023438 14.078125 -6.21875 14.171875 -5.59375 C 14.273438 -4.976562 14.507812 -4.5 14.875 -4.15625 C 15.25 -3.8125 15.78125 -3.585938 16.46875 -3.484375 C 17.164062 -3.390625 18.082031 -3.34375 19.21875 -3.34375 L 19.21875 0.21875 C 17.9375 0.175781 16.515625 0.140625 14.953125 0.109375 C 13.398438 0.0859375 11.789062 0.078125 10.125 0.078125 C 8.46875 0.078125 6.835938 0.0976562 5.234375 0.140625 C 3.628906 0.191406 2.179688 0.242188 0.890625 0.296875 L 0.890625 -3.34375 C 2.128906 -3.34375 3.09375 -3.40625 3.78125 -3.53125 C 4.476562 -3.65625 5.007812 -3.875 5.375 -4.1875 C 5.75 -4.507812 5.984375 -4.976562 6.078125 -5.59375 C 6.179688 -6.21875 6.234375 -7.023438 6.234375 -8.015625 L 6.234375 -25.234375 C 6.234375 -26.421875 6.207031 -27.359375 6.15625 -28.046875 C 6.113281 -28.742188 5.941406 -29.273438 5.640625 -29.640625 C 5.347656 -30.015625 4.914062 -30.238281 4.34375 -30.3125 C 3.769531 -30.394531 2.96875 -30.4375 1.9375 -30.4375 L 1.9375 -33.40625 C 3.71875 -33.644531 5.273438 -34.023438 6.609375 -34.546875 C 7.941406 -35.066406 9.203125 -35.875 10.390625 -36.96875 Z M 14.46875 -36.96875 "/></g></g></g><g fill="#000000" fill-opacity="1"><g transform="translate(402.255736, 457.400037)"><g/></g></g><g fill="#000000" fill-opacity="1"><g transform="translate(425.039731, 457.400037)"><g><path d="M 16.40625 -31.46875 L 47.125 -31.46875 L 47.125 -46.234375 C 47.125 -47.671875 47.0625 -48.796875 46.9375 -49.609375 C 46.820312 -50.429688 46.523438 -51.050781 46.046875 -51.46875 C 45.578125 -51.894531 44.875 -52.15625 43.9375 -52.25 C 43 -52.351562 41.710938 -52.40625 40.078125 -52.40625 L 40.078125 -55.96875 C 41.265625 -55.914062 42.894531 -55.875 44.96875 -55.84375 C 47.050781 -55.820312 49.191406 -55.8125 51.390625 -55.8125 C 53.597656 -55.8125 55.703125 -55.820312 57.703125 -55.84375 C 59.710938 -55.875 61.257812 -55.914062 62.34375 -55.96875 L 62.34375 -52.40625 C 60.707031 -52.40625 59.429688 -52.34375 58.515625 -52.21875 C 57.609375 -52.09375 56.90625 -51.816406 56.40625 -51.390625 C 55.914062 -50.972656 55.609375 -50.351562 55.484375 -49.53125 C 55.359375 -48.71875 55.296875 -47.570312 55.296875 -46.09375 L 55.296875 -10.390625 C 55.296875 -8.804688 55.367188 -7.546875 55.515625 -6.609375 C 55.660156 -5.671875 55.976562 -4.960938 56.46875 -4.484375 C 56.96875 -4.015625 57.675781 -3.707031 58.59375 -3.5625 C 59.507812 -3.414062 60.757812 -3.34375 62.34375 -3.34375 L 62.34375 0.296875 C 61.257812 0.242188 59.710938 0.191406 57.703125 0.140625 C 55.703125 0.0976562 53.585938 0.078125 51.359375 0.078125 C 49.128906 0.078125 46.988281 0.0976562 44.9375 0.140625 C 42.882812 0.191406 41.265625 0.242188 40.078125 0.296875 L 40.078125 -3.34375 C 41.660156 -3.34375 42.921875 -3.425781 43.859375 -3.59375 C 44.804688 -3.769531 45.515625 -4.101562 45.984375 -4.59375 C 46.453125 -5.09375 46.757812 -5.785156 46.90625 -6.671875 C 47.050781 -7.566406 47.125 -8.757812 47.125 -10.25 L 47.125 -26.796875 L 16.40625 -26.796875 L 16.40625 -10.25 C 16.40625 -8.707031 16.46875 -7.488281 16.59375 -6.59375 C 16.71875 -5.707031 17.015625 -5.015625 17.484375 -4.515625 C 17.953125 -4.023438 18.65625 -3.707031 19.59375 -3.5625 C 20.53125 -3.414062 21.789062 -3.34375 23.375 -3.34375 L 23.375 0.21875 C 22.238281 0.175781 20.65625 0.140625 18.625 0.109375 C 16.601562 0.0859375 14.488281 0.078125 12.28125 0.078125 C 10.082031 0.078125 7.96875 0.0976562 5.9375 0.140625 C 3.90625 0.191406 2.296875 0.242188 1.109375 0.296875 L 1.109375 -3.34375 C 2.691406 -3.34375 3.953125 -3.425781 4.890625 -3.59375 C 5.835938 -3.769531 6.554688 -4.101562 7.046875 -4.59375 C 7.546875 -5.09375 7.867188 -5.800781 8.015625 -6.71875 C 8.160156 -7.632812 8.234375 -8.859375 8.234375 -10.390625 L 8.234375 -45.796875 C 8.234375 -47.328125 8.160156 -48.523438 8.015625 -49.390625 C 7.867188 -50.253906 7.546875 -50.910156 7.046875 -51.359375 C 6.554688 -51.804688 5.835938 -52.09375 4.890625 -52.21875 C 3.953125 -52.34375 2.691406 -52.40625 1.109375 -52.40625 L 1.109375 -56.03125 C 2.253906 -55.9375 3.835938 -55.875 5.859375 -55.84375 C 7.890625 -55.820312 10.003906 -55.8125 12.203125 -55.8125 C 14.410156 -55.8125 16.539062 -55.820312 18.59375 -55.84375 C 20.644531 -55.875 22.238281 -55.9375 23.375 -56.03125 L 23.375 -52.40625 C 21.789062 -52.40625 20.539062 -52.328125 19.625 -52.171875 C 18.71875 -52.023438 18.023438 -51.738281 17.546875 -51.3125 C 17.078125 -50.894531 16.769531 -50.265625 16.625 -49.421875 C 16.476562 -48.585938 16.40625 -47.453125 16.40625 -46.015625 Z M 16.40625 -31.46875 "/></g></g></g><g fill="#000000" fill-opacity="1"><g transform="translate(489.309862, 457.400037)"><g><path d="M 40.234375 -18.03125 C 40.234375 -15.414062 39.75 -12.929688 38.78125 -10.578125 C 37.8125 -8.222656 36.472656 -6.164062 34.765625 -4.40625 C 33.066406 -2.65625 31.078125 -1.257812 28.796875 -0.21875 C 26.523438 0.820312 24.101562 1.34375 21.53125 1.34375 C 18.851562 1.34375 16.328125 0.882812 13.953125 -0.03125 C 11.578125 -0.945312 9.507812 -2.234375 7.75 -3.890625 C 6 -5.554688 4.601562 -7.550781 3.5625 -9.875 C 2.519531 -12.195312 2 -14.796875 2 -17.671875 C 2 -20.242188 2.457031 -22.703125 3.375 -25.046875 C 4.289062 -27.398438 5.566406 -29.46875 7.203125 -31.25 C 8.835938 -33.03125 10.78125 -34.4375 13.03125 -35.46875 C 15.28125 -36.507812 17.738281 -37.03125 20.40625 -37.03125 C 23.226562 -37.03125 25.851562 -36.570312 28.28125 -35.65625 C 30.707031 -34.75 32.8125 -33.460938 34.59375 -31.796875 C 36.375 -30.140625 37.757812 -28.132812 38.75 -25.78125 C 39.738281 -23.4375 40.234375 -20.851562 40.234375 -18.03125 Z M 31.390625 -17.140625 C 31.390625 -18.878906 31.191406 -20.710938 30.796875 -22.640625 C 30.398438 -24.566406 29.769531 -26.332031 28.90625 -27.9375 C 28.039062 -29.550781 26.941406 -30.875 25.609375 -31.90625 C 24.273438 -32.945312 22.664062 -33.46875 20.78125 -33.46875 C 19 -33.46875 17.460938 -33 16.171875 -32.0625 C 14.890625 -31.125 13.851562 -29.9375 13.0625 -28.5 C 12.269531 -27.0625 11.6875 -25.453125 11.3125 -23.671875 C 10.945312 -21.890625 10.765625 -20.160156 10.765625 -18.484375 C 10.765625 -16.898438 10.960938 -15.164062 11.359375 -13.28125 C 11.753906 -11.40625 12.367188 -9.648438 13.203125 -8.015625 C 14.046875 -6.378906 15.148438 -5.015625 16.515625 -3.921875 C 17.878906 -2.835938 19.5 -2.296875 21.375 -2.296875 C 23.15625 -2.296875 24.675781 -2.765625 25.9375 -3.703125 C 27.195312 -4.648438 28.234375 -5.851562 29.046875 -7.3125 C 29.867188 -8.769531 30.460938 -10.363281 30.828125 -12.09375 C 31.203125 -13.832031 31.390625 -15.515625 31.390625 -17.140625 Z M 31.390625 -17.140625 "/></g></g></g><g fill="#000000" fill-opacity="1"><g transform="translate(531.983436, 457.400037)"><g><path d="M 6.3125 2.53125 L 6.3125 -25.234375 C 6.3125 -26.421875 6.285156 -27.359375 6.234375 -28.046875 C 6.179688 -28.742188 6.003906 -29.273438 5.703125 -29.640625 C 5.410156 -30.015625 4.976562 -30.238281 4.40625 -30.3125 C 3.84375 -30.394531 3.039062 -30.4375 2 -30.4375 L 2 -33.40625 C 3.78125 -33.644531 5.335938 -34.023438 6.671875 -34.546875 C 8.015625 -35.066406 9.28125 -35.875 10.46875 -36.96875 L 14.546875 -36.96875 C 14.347656 -35.476562 14.222656 -33.90625 14.171875 -32.25 C 14.128906 -30.59375 14.109375 -29.171875 14.109375 -27.984375 L 14.109375 1.78125 C 14.109375 4.207031 13.796875 6.3125 13.171875 8.09375 C 12.554688 9.875 11.664062 11.394531 10.5 12.65625 C 9.34375 13.914062 7.921875 14.976562 6.234375 15.84375 C 4.554688 16.707031 2.675781 17.4375 0.59375 18.03125 L -0.375 15.140625 C 2.15625 13.859375 3.898438 12.226562 4.859375 10.25 C 5.828125 8.269531 6.3125 5.695312 6.3125 2.53125 Z M 10.015625 -56.625 C 11.503906 -56.625 12.753906 -56.117188 13.765625 -55.109375 C 14.785156 -54.097656 15.296875 -52.945312 15.296875 -51.65625 C 15.296875 -50.414062 14.785156 -49.300781 13.765625 -48.3125 C 12.753906 -47.320312 11.503906 -46.828125 10.015625 -46.828125 C 8.585938 -46.828125 7.363281 -47.320312 6.34375 -48.3125 C 5.332031 -49.300781 4.828125 -50.414062 4.828125 -51.65625 C 4.828125 -52.945312 5.332031 -54.097656 6.34375 -55.109375 C 7.363281 -56.117188 8.585938 -56.625 10.015625 -56.625 Z M 10.015625 -56.625 "/></g></g></g><g fill="#000000" fill-opacity="1"><g transform="translate(552.466757, 457.400037)"><g><path d="M 28.203125 0.15625 L 28.203125 -4.375 C 26.722656 -2.75 24.941406 -1.414062 22.859375 -0.375 C 20.785156 0.664062 18.265625 1.238281 15.296875 1.34375 C 14.203125 1.34375 13.097656 1.15625 11.984375 0.78125 C 10.867188 0.40625 9.863281 -0.1875 8.96875 -1 C 8.082031 -1.820312 7.367188 -2.847656 6.828125 -4.078125 C 6.285156 -5.316406 6.015625 -6.800781 6.015625 -8.53125 L 6.015625 -28.578125 C 6.015625 -29.367188 5.976562 -30 5.90625 -30.46875 C 5.832031 -30.9375 5.632812 -31.304688 5.3125 -31.578125 C 4.988281 -31.847656 4.515625 -32.019531 3.890625 -32.09375 C 3.273438 -32.175781 2.425781 -32.265625 1.34375 -32.359375 L 1.34375 -35.25 C 3.019531 -35.300781 4.972656 -35.390625 7.203125 -35.515625 C 9.429688 -35.640625 11.734375 -35.800781 14.109375 -36 C 14.003906 -34.863281 13.925781 -33.578125 13.875 -32.140625 C 13.832031 -30.703125 13.8125 -29.5625 13.8125 -28.71875 L 13.8125 -12.6875 C 13.8125 -10.8125 13.894531 -9.316406 14.0625 -8.203125 C 14.238281 -7.085938 14.507812 -6.234375 14.875 -5.640625 C 15.25 -5.046875 15.71875 -4.648438 16.28125 -4.453125 C 16.851562 -4.253906 17.5625 -4.15625 18.40625 -4.15625 C 19.84375 -4.15625 21.5 -4.578125 23.375 -5.421875 C 25.257812 -6.265625 26.894531 -7.378906 28.28125 -8.765625 L 28.28125 -28.578125 C 28.28125 -29.367188 28.203125 -29.984375 28.046875 -30.421875 C 27.898438 -30.867188 27.628906 -31.226562 27.234375 -31.5 C 26.835938 -31.78125 26.289062 -31.96875 25.59375 -32.0625 C 24.90625 -32.164062 23.992188 -32.265625 22.859375 -32.359375 L 22.859375 -35.25 C 24.546875 -35.300781 26.625 -35.390625 29.09375 -35.515625 C 31.570312 -35.640625 34 -35.800781 36.375 -36 C 36.269531 -34.863281 36.191406 -33.578125 36.140625 -32.140625 C 36.097656 -30.703125 36.078125 -29.5625 36.078125 -28.71875 L 36.078125 -6.390625 C 36.078125 -5.742188 36.113281 -5.234375 36.1875 -4.859375 C 36.257812 -4.492188 36.457031 -4.234375 36.78125 -4.078125 C 37.101562 -3.929688 37.609375 -3.867188 38.296875 -3.890625 C 38.992188 -3.921875 39.957031 -3.984375 41.1875 -4.078125 L 41.1875 -1.109375 C 40.59375 -0.960938 39.875 -0.800781 39.03125 -0.625 C 38.195312 -0.457031 37.320312 -0.257812 36.40625 -0.03125 C 35.488281 0.1875 34.582031 0.421875 33.6875 0.671875 C 32.800781 0.921875 32.015625 1.164062 31.328125 1.40625 C 30.484375 1.757812 29.75 1.710938 29.125 1.265625 C 28.507812 0.816406 28.203125 0.445312 28.203125 0.15625 Z M 28.203125 0.15625 "/></g></g></g><g fill="#000000" fill-opacity="1"><g transform="translate(595.140354, 457.400037)"><g><path d="M 14.171875 -36.96875 C 14.023438 -35.675781 13.925781 -34.546875 13.875 -33.578125 C 13.832031 -32.617188 13.8125 -31.84375 13.8125 -31.25 C 14.800781 -32.132812 15.75 -32.921875 16.65625 -33.609375 C 17.570312 -34.304688 18.472656 -34.890625 19.359375 -35.359375 C 20.253906 -35.835938 21.296875 -36.234375 22.484375 -36.546875 C 23.671875 -36.867188 24.9375 -37.03125 26.28125 -37.03125 C 28.101562 -37.03125 29.644531 -36.722656 30.90625 -36.109375 C 32.175781 -35.492188 33.191406 -34.648438 33.953125 -33.578125 C 34.722656 -32.515625 35.269531 -31.28125 35.59375 -29.875 C 35.914062 -28.46875 36.078125 -26.972656 36.078125 -25.390625 L 36.078125 -8.234375 C 36.078125 -7.242188 36.132812 -6.425781 36.25 -5.78125 C 36.375 -5.144531 36.625 -4.640625 37 -4.265625 C 37.375 -3.898438 37.90625 -3.65625 38.59375 -3.53125 C 39.289062 -3.40625 40.234375 -3.34375 41.421875 -3.34375 L 41.421875 0.15625 C 40.523438 0.15625 39.234375 0.140625 37.546875 0.109375 C 35.867188 0.0859375 34.113281 0.0859375 32.28125 0.109375 C 30.457031 0.140625 28.703125 0.164062 27.015625 0.1875 C 25.335938 0.207031 24.050781 0.242188 23.15625 0.296875 L 23.15625 -3.34375 C 24.289062 -3.34375 25.191406 -3.40625 25.859375 -3.53125 C 26.535156 -3.65625 27.054688 -3.898438 27.421875 -4.265625 C 27.796875 -4.640625 28.03125 -5.132812 28.125 -5.75 C 28.226562 -6.375 28.28125 -7.179688 28.28125 -8.171875 L 28.28125 -25.3125 C 28.28125 -27.738281 27.820312 -29.367188 26.90625 -30.203125 C 25.988281 -31.046875 24.515625 -31.46875 22.484375 -31.46875 C 21.941406 -31.46875 21.285156 -31.316406 20.515625 -31.015625 C 19.753906 -30.722656 18.953125 -30.363281 18.109375 -29.9375 C 17.265625 -29.519531 16.457031 -29.0625 15.6875 -28.5625 C 14.925781 -28.070312 14.300781 -27.609375 13.8125 -27.171875 L 13.8125 -8.171875 C 13.8125 -7.179688 13.867188 -6.375 13.984375 -5.75 C 14.109375 -5.132812 14.359375 -4.640625 14.734375 -4.265625 C 15.109375 -3.898438 15.640625 -3.65625 16.328125 -3.53125 C 17.023438 -3.40625 17.96875 -3.34375 19.15625 -3.34375 L 19.15625 0.296875 C 18.257812 0.242188 16.957031 0.191406 15.25 0.140625 C 13.539062 0.0976562 11.769531 0.078125 9.9375 0.078125 C 8.113281 0.078125 6.359375 0.0976562 4.671875 0.140625 C 2.992188 0.191406 1.707031 0.242188 0.8125 0.296875 L 0.8125 -3.34375 C 1.957031 -3.34375 2.875 -3.40625 3.5625 -3.53125 C 4.257812 -3.65625 4.789062 -3.898438 5.15625 -4.265625 C 5.53125 -4.640625 5.765625 -5.144531 5.859375 -5.78125 C 5.960938 -6.425781 6.015625 -7.242188 6.015625 -8.234375 L 6.015625 -25.234375 C 6.015625 -26.421875 5.988281 -27.359375 5.9375 -28.046875 C 5.882812 -28.742188 5.707031 -29.273438 5.40625 -29.640625 C 5.113281 -30.015625 4.679688 -30.238281 4.109375 -30.3125 C 3.546875 -30.394531 2.742188 -30.4375 1.703125 -30.4375 L 1.703125 -33.40625 C 3.484375 -33.644531 5.03125 -34.023438 6.34375 -34.546875 C 7.65625 -35.066406 8.929688 -35.875 10.171875 -36.96875 Z M 14.171875 -36.96875 "/></g></g></g></svg>